<svg width="132" height="132" viewBox="0 0 132 132" fill="none" xmlns="http://www.w3.org/2000/svg">
<g clip-path="url(#clip0_7203_273)">
<mask id="mask0_7203_273" style="mask-type:luminance" maskUnits="userSpaceOnUse" x="0" y="0" width="132" height="132">
<path d="M132 0H0V132H132V0Z" fill="white"/>
</mask>
<g mask="url(#mask0_7203_273)">
<path d="M132 66C132 72.137 131.162 78.079 129.597 83.7137C128.12 89.0248 125.996 94.0665 123.315 98.7468C122.614 99.971 121.876 101.17 121.1 102.344C118.61 106.112 115.743 109.61 112.552 112.784L112.544 112.792C111.025 114.303 109.436 115.739 107.78 117.095C106.025 118.531 104.195 119.88 102.295 121.133C92.3194 127.718 80.4483 131.66 67.6722 131.975C67.5726 131.983 67.4688 131.983 67.3651 131.983H67.3609C67.2613 131.988 67.1575 131.992 67.0541 131.988C66.7054 131.996 66.3528 132 66 132C65.6472 132 65.2864 131.996 64.9335 131.992H64.8466C64.4604 131.983 64.0787 131.975 63.6929 131.958C50.6306 131.51 38.5351 127.27 28.4689 120.295C28.4481 120.282 28.4274 120.266 28.4066 120.253C27.9129 119.909 27.4191 119.56 26.9336 119.199C24.8672 117.681 22.8921 116.042 21.0166 114.295C20.9876 114.266 20.9585 114.241 20.9295 114.212C17.1411 110.672 13.7718 106.689 10.9004 102.349C10.7095 102.058 10.5228 101.772 10.3361 101.477C7.58505 97.1701 5.32366 92.5228 3.62242 87.614C1.27386 80.8424 0 73.5725 0 66C0 29.5519 29.5519 0 66 0C102.448 0 132 29.5519 132 66Z" fill="#EAF4FF"/>
<path d="M108.49 36.1661C107.818 35.1742 107.104 34.2407 106.427 33.4023C101.859 27.7261 96.8882 22.3444 91.498 17.5975C93.2781 19.166 98.8923 32.2654 99.4234 36.1163C100.149 41.3734 72.6186 49.1782 72.1245 51.809C76.4316 53.9004 80.2241 57.4273 82.8755 61.7011C83.7221 63.0665 84.4567 64.5061 85.05 66.0041C92.112 60.0663 99.5231 54.5976 107.241 49.6266C109.863 47.9376 112.021 46.332 111.448 42.7302C111.087 40.4812 109.88 38.2032 108.498 36.1702L108.49 36.1661Z" fill="#4793FF"/>
<path d="M26.8424 36.1661C27.5146 35.1742 28.2283 34.2407 28.9046 33.4023C33.4732 27.7261 38.4441 22.3444 43.8342 17.5975C42.0541 19.166 36.44 32.2654 35.9088 36.1163C35.1825 41.3734 62.7137 49.1782 63.2074 51.809C58.9006 53.9004 55.1078 57.4273 52.4564 61.7011C51.6102 63.0665 50.8756 64.5061 50.2822 66.0041C43.2199 60.0663 35.8092 54.5976 28.0914 49.6266C25.469 47.9376 23.3113 46.332 23.8839 42.7302C24.2449 40.4812 25.4524 38.2032 26.8341 36.1702L26.8424 36.1661Z" fill="#2E6CCF"/>
<path d="M129.598 83.7137C128.12 89.0248 125.996 94.0665 123.315 98.7468C122.614 99.971 121.876 101.17 121.1 102.344C115.784 103.851 111.415 109.817 107.78 117.095C106.025 118.531 104.195 119.88 102.295 121.133C92.3196 127.718 80.4484 131.66 67.6724 131.975L71.6682 51.0374C72.7347 50.3609 73.8757 49.7593 75.0748 49.2198C83.7595 45.3195 95.552 44.9295 104.569 47.0955C102.266 47.6764 97.3613 49.5974 95.6557 52.3983C115.929 52.6972 126.784 66.726 131.029 75.3942C128.568 75.0788 126.108 74.7675 123.651 74.4521C125.199 75.7801 127.423 78.6847 129.598 83.7137Z" fill="#82B8FF"/>
<path d="M63.0584 51.0374L67.0542 131.988C66.7055 131.996 66.353 132 66.0001 132C65.6473 132 65.2865 131.996 64.9337 131.992H64.8467C64.4609 131.984 64.0788 131.975 63.693 131.958C50.6307 131.51 38.5353 127.27 28.469 120.295C24.2408 110.946 18.9462 102.9 12.191 102.05C11.7761 102.112 11.3446 102.216 10.9005 102.349C10.7097 102.058 10.523 101.772 10.3363 101.477C7.58519 97.1701 5.3238 92.5228 3.62256 87.6141C6.22007 80.1412 9.17027 76.0913 11.079 74.4521C8.61841 74.7675 6.16197 75.0788 3.70138 75.3942C7.94619 66.726 18.7968 52.6972 39.0747 52.3983C37.3695 49.5974 32.4648 47.6764 30.1578 47.0955C39.1784 44.9295 50.9712 45.3195 59.6514 49.2198C60.8509 49.7593 61.9919 50.3609 63.0584 51.0374Z" fill="#3580FF"/>
<path d="M67.3608 51.5146V131.983C67.2611 131.988 67.1574 131.992 67.0539 131.988C66.7052 131.996 66.3527 132 65.9998 132C65.647 132 65.2862 131.996 64.9334 131.992H64.8464C64.4606 131.983 64.0785 131.975 63.6927 131.958C50.6304 131.51 38.5353 127.27 28.4687 120.295C28.448 120.282 28.4272 120.266 28.4065 120.253C27.9127 119.909 27.4189 119.56 26.9334 119.199C24.8671 117.681 22.892 116.041 21.0165 114.295C21.5227 113.614 21.9874 113.029 22.3816 112.548L20.9293 114.211C17.1409 110.672 13.7716 106.689 10.9003 102.349C10.7094 102.058 10.5227 101.772 10.3359 101.477C16.0164 86.0082 25.9417 77.9917 26.2488 77.7426L14.5973 83.8216C24.2986 63.9169 42.2985 58.7095 42.2985 58.7095L29.921 58.502C41.9378 51.5393 56.9956 51.7468 56.9956 51.7468L48.2281 48.1368C52.9667 48.2282 56.7468 48.6763 59.6511 49.2198C64.5685 50.1368 66.9955 51.3277 67.3608 51.5146Z" fill="#2E6CCF"/>
<path d="M123.315 98.7468C122.614 99.971 121.876 101.17 121.1 102.344C118.61 106.112 115.743 109.61 112.552 112.784L112.345 112.548C112.411 112.626 112.473 112.705 112.544 112.792C111.025 114.303 109.436 115.739 107.78 117.095C106.025 118.531 104.195 119.879 102.295 121.133C92.3196 127.718 80.4485 131.66 67.6724 131.975C67.5728 131.983 67.469 131.983 67.3652 131.983V51.5146C67.7305 51.3277 70.1579 50.1368 75.0749 49.2198C77.9795 48.6763 81.7596 48.2282 86.4983 48.1368L77.7304 51.7468C77.7304 51.7468 92.7927 51.5393 104.809 58.502L92.4316 58.7095C92.4316 58.7095 110.432 63.9169 120.129 83.8216L108.482 77.7426C108.751 77.9625 117.54 85.0499 123.315 98.7468Z" fill="#4793FF"/>
<path d="M67.3607 113.643C80.8723 113.643 91.8255 102.69 91.8255 89.1784C91.8255 75.6671 80.8723 64.7136 67.3607 64.7136C53.8495 64.7136 42.896 75.6671 42.896 89.1784C42.896 102.69 53.8495 113.643 67.3607 113.643Z" fill="white"/>
<path d="M67.361 104.307C75.7164 104.307 82.4896 97.5337 82.4896 89.1784C82.4896 80.8231 75.7164 74.0498 67.361 74.0498C59.0057 74.0498 52.2324 80.8231 52.2324 89.1784C52.2324 97.5337 59.0057 104.307 67.361 104.307Z" fill="#FFC78E"/>
<path d="M67.3609 97.5642C71.9923 97.5642 75.7467 93.8098 75.7467 89.1784C75.7467 84.547 71.9923 80.7926 67.3609 80.7926C62.7295 80.7926 58.9751 84.547 58.9751 89.1784C58.9751 93.8098 62.7295 97.5642 67.3609 97.5642Z" fill="#1D2B3A"/>
<path d="M84.8172 70.859C74.2366 61.2033 57.834 61.9544 48.1824 72.5312C44.278 76.8091 42.0746 82.0415 41.5352 87.3901C60.6015 81.4358 78.4025 83.9584 93.1906 88.1161C92.722 81.7344 89.917 75.5104 84.8172 70.859Z" fill="#3580FF"/>
</g>
</g>
<defs>
<clipPath id="clip0_7203_273">
<rect width="132" height="132" fill="white"/>
</clipPath>
</defs>
</svg>
