<svg width="24" height="24" viewBox="0 0 24 24" fill="none" xmlns="http://www.w3.org/2000/svg">
<path fill-rule="evenodd" clip-rule="evenodd" d="M16.0905 9.09687C16.3834 9.38976 16.3834 9.86463 16.0905 10.1575L11.3445 14.9035C11.0517 15.1964 10.5769 15.1964 10.284 14.9036L7.90997 12.5306C7.61701 12.2378 7.61691 11.7629 7.90974 11.47C8.20258 11.177 8.67745 11.1769 8.9704 11.4698L10.8141 13.3126L15.0299 9.09687C15.3227 8.80397 15.7976 8.80397 16.0905 9.09687Z" fill="black"/>
<path fill-rule="evenodd" clip-rule="evenodd" d="M4.24305 4.24354C5.91083 2.57576 8.48966 2.00024 11.9998 2.00024C15.5099 2.00024 18.0887 2.57576 19.7565 4.24354C21.4242 5.91132 21.9998 8.49015 21.9998 12.0002C21.9998 15.5103 21.4242 18.0892 19.7565 19.7569C18.0887 21.4247 15.5099 22.0002 11.9998 22.0002C8.48966 22.0002 5.91083 21.4247 4.24305 19.7569C2.57527 18.0892 1.99976 15.5103 1.99976 12.0002C1.99976 8.49015 2.57527 5.91132 4.24305 4.24354ZM5.30371 5.3042C4.08074 6.52717 3.49976 8.57334 3.49976 12.0002C3.49976 15.4271 4.08074 17.4733 5.30371 18.6963C6.52668 19.9193 8.57285 20.5002 11.9998 20.5002C15.4267 20.5002 17.4728 19.9193 18.6958 18.6963C19.9188 17.4733 20.4998 15.4271 20.4998 12.0002C20.4998 8.57334 19.9188 6.52717 18.6958 5.3042C17.4728 4.08123 15.4267 3.50024 11.9998 3.50024C8.57285 3.50024 6.52668 4.08123 5.30371 5.3042Z" fill="black"/>
</svg>
