<?xml version="1.0" encoding="UTF-8"?>
<svg width="24" height="24" viewBox="0 0 24 24" fill="none" xmlns="http://www.w3.org/2000/svg">
<path fill-rule="evenodd" clip-rule="evenodd" d="M20.9842 6.34926C20.9813 4.9375 19.9139 3.67169 18.5284 3.43331C18.2443 3.38369 14.912 3.3905 13.5333 3.39148C12.1692 3.39245 11.0065 3.88282 10.0433 4.8441C7.99813 6.88536 5.95492 8.92857 3.91366 10.9737C2.70719 12.1831 2.69065 14.0395 3.89323 15.2528C5.62801 17.0041 7.37155 18.7467 9.1219 20.4815C10.3342 21.6831 12.1906 21.6675 13.401 20.4601C15.4646 18.4022 17.5282 16.3444 19.5831 14.2779C20.378 13.4781 20.847 12.512 20.9511 11.3824C21.0348 10.4795 20.9861 7.12276 20.9842 6.34926Z" stroke="#000000" stroke-width="1.5" stroke-linecap="round" stroke-linejoin="round"></path>
<path fill-rule="evenodd" clip-rule="evenodd" d="M14.0938 8.69911C14.0977 9.56893 14.8245 10.2841 15.703 10.2821C16.5758 10.2802 17.3026 9.55239 17.2977 8.68548C17.2919 7.78063 16.5758 7.07524 15.6651 7.07913C14.8011 7.08205 14.0899 7.81469 14.0938 8.69911Z" stroke="#000000" stroke-width="1.5" stroke-linecap="round" stroke-linejoin="round"></path>
<path d="M8.04736 13.753L10.6238 16.3294" stroke="#000000" stroke-width="1.5" stroke-linecap="round" stroke-linejoin="round"></path>
</svg>